<svg id="Group_2" data-name="Group 2" xmlns="http://www.w3.org/2000/svg" width="1797" height="1764" viewBox="0 0 1797 1764">
  <g id="Oval" transform="translate(144 632.5)" fill="#c0ca33" stroke="#c0ca33" stroke-miterlimit="10" stroke-width="1">
    <circle cx="250" cy="250" r="250" stroke="none"/>
    <circle cx="250" cy="250" r="249.5" fill="none"/>
  </g>
  <g id="Oval-2" data-name="Oval" transform="translate(27 824)" fill="#c0ca33" stroke="#c0ca33" stroke-miterlimit="10" stroke-width="1">
    <circle cx="58.5" cy="58.5" r="58.5" stroke="none"/>
    <circle cx="58.5" cy="58.5" r="58" fill="none"/>
  </g>
  <g id="Oval-3" data-name="Oval" transform="translate(230 617)" fill="#c0ca33" stroke="#c0ca33" stroke-miterlimit="10" stroke-width="1">
    <circle cx="26" cy="26" r="26" stroke="none"/>
    <circle cx="26" cy="26" r="25.5" fill="none"/>
  </g>
  <g id="Oval-4" data-name="Oval" transform="translate(230 617)" fill="#c0ca33" stroke="#c0ca33" stroke-miterlimit="10" stroke-width="1">
    <circle cx="26" cy="26" r="26" stroke="none"/>
    <circle cx="26" cy="26" r="25.5" fill="none"/>
  </g>
  <g id="Oval-5" data-name="Oval" transform="translate(175 720)" fill="#c0ca33" stroke="#c0ca33" stroke-miterlimit="10" stroke-width="1">
    <circle cx="9" cy="9" r="9" stroke="none"/>
    <circle cx="9" cy="9" r="8.5" fill="none"/>
  </g>
  <g id="Oval-6" data-name="Oval" transform="translate(175 1026)" fill="#c0ca33" stroke="#c0ca33" stroke-miterlimit="10" stroke-width="1">
    <circle cx="9" cy="9" r="9" stroke="none"/>
    <circle cx="9" cy="9" r="8.5" fill="none"/>
  </g>
  <g id="Oval-7" data-name="Oval" transform="translate(160 767)" fill="#c0ca33" stroke="#c0ca33" stroke-miterlimit="10" stroke-width="1">
    <circle cx="4.5" cy="4.5" r="4.5" stroke="none"/>
    <circle cx="4.5" cy="4.5" r="4" fill="none"/>
  </g>
  <g id="Oval-8" data-name="Oval" transform="translate(160 988)" fill="#c0ca33" stroke="#c0ca33" stroke-miterlimit="10" stroke-width="1">
    <circle cx="4.5" cy="4.5" r="4.5" stroke="none"/>
    <circle cx="4.5" cy="4.5" r="4" fill="none"/>
  </g>
  <g id="Oval-9" data-name="Oval" transform="translate(154 793)" fill="#c0ca33" stroke="#c0ca33" stroke-miterlimit="10" stroke-width="1">
    <circle cx="2.5" cy="2.5" r="2.5" stroke="none"/>
    <circle cx="2.5" cy="2.5" r="2" fill="none"/>
  </g>
  <g id="Oval-10" data-name="Oval" transform="translate(154 966)" fill="#c0ca33" stroke="#c0ca33" stroke-miterlimit="10" stroke-width="1">
    <circle cx="2.5" cy="2.5" r="2.5" stroke="none"/>
    <circle cx="2.5" cy="2.5" r="2" fill="none"/>
  </g>
  <g id="Oval-11" data-name="Oval" transform="translate(211 699)" fill="#c0ca33" stroke="#c0ca33" stroke-miterlimit="10" stroke-width="1">
    <circle cx="3.5" cy="3.5" r="3.5" stroke="none"/>
    <circle cx="3.5" cy="3.5" r="3" fill="none"/>
  </g>
  <g id="Oval-12" data-name="Oval" transform="translate(211 1059)" fill="#c0ca33" stroke="#c0ca33" stroke-miterlimit="10" stroke-width="1">
    <circle cx="3.5" cy="3.5" r="3.5" stroke="none"/>
    <circle cx="3.5" cy="3.5" r="3" fill="none"/>
  </g>
  <g id="Oval-13" data-name="Oval" transform="translate(333 629)" fill="#c0ca33" stroke="#c0ca33" stroke-miterlimit="10" stroke-width="1">
    <circle cx="4.5" cy="4.5" r="4.5" stroke="none"/>
    <circle cx="4.5" cy="4.5" r="4" fill="none"/>
  </g>
  <g id="Oval-14" data-name="Oval" transform="translate(333 1127)" fill="#c0ca33" stroke="#c0ca33" stroke-miterlimit="10" stroke-width="1">
    <circle cx="4.5" cy="4.5" r="4.5" stroke="none"/>
    <circle cx="4.5" cy="4.5" r="4" fill="none"/>
  </g>
  <g id="Oval-15" data-name="Oval" transform="translate(394 596)" fill="#c0ca33" stroke="#c0ca33" stroke-miterlimit="10" stroke-width="1">
    <circle cx="3" cy="3" r="3" stroke="none"/>
    <circle cx="3" cy="3" r="2.5" fill="none"/>
  </g>
  <g id="Oval-16" data-name="Oval" transform="translate(394 1163)" fill="#c0ca33" stroke="#c0ca33" stroke-miterlimit="10" stroke-width="1">
    <circle cx="3" cy="3" r="3" stroke="none"/>
    <circle cx="3" cy="3" r="2.5" fill="none"/>
  </g>
  <g id="Oval-17" data-name="Oval" transform="translate(380 602.5)" fill="#c0ca33" stroke="#c0ca33" stroke-miterlimit="10" stroke-width="1">
    <circle cx="14.5" cy="14.5" r="14.5" stroke="none"/>
    <circle cx="14.5" cy="14.5" r="14" fill="none"/>
  </g>
  <g id="Oval-18" data-name="Oval" transform="translate(380 1133)" fill="#c0ca33" stroke="#c0ca33" stroke-miterlimit="10" stroke-width="1">
    <circle cx="14.5" cy="14.5" r="14.5" stroke="none"/>
    <circle cx="14.5" cy="14.5" r="14" fill="none"/>
  </g>
  <g id="Oval-19" data-name="Oval" transform="translate(465 626)" fill="#c0ca33" stroke="#c0ca33" stroke-miterlimit="10" stroke-width="1">
    <circle cx="9.5" cy="9.5" r="9.5" stroke="none"/>
    <circle cx="9.5" cy="9.5" r="9" fill="none"/>
  </g>
  <g id="Oval-20" data-name="Oval" transform="translate(465 1120)" fill="#c0ca33" stroke="#c0ca33" stroke-miterlimit="10" stroke-width="1">
    <circle cx="9.5" cy="9.5" r="9.5" stroke="none"/>
    <circle cx="9.5" cy="9.5" r="9" fill="none"/>
  </g>
  <g id="Oval-21" data-name="Oval" transform="translate(516 653)" fill="#c0ca33" stroke="#c0ca33" stroke-miterlimit="10" stroke-width="1">
    <circle cx="6.5" cy="6.5" r="6.5" stroke="none"/>
    <circle cx="6.5" cy="6.5" r="6" fill="none"/>
  </g>
  <g id="Oval-22" data-name="Oval" transform="translate(516 1098)" fill="#c0ca33" stroke="#c0ca33" stroke-miterlimit="10" stroke-width="1">
    <circle cx="6.5" cy="6.5" r="6.5" stroke="none"/>
    <circle cx="6.5" cy="6.5" r="6" fill="none"/>
  </g>
  <g id="Oval-23" data-name="Oval" transform="translate(548 678)" fill="#c0ca33" stroke="#c0ca33" stroke-miterlimit="10" stroke-width="1">
    <circle cx="5" cy="5" r="5" stroke="none"/>
    <circle cx="5" cy="5" r="4.5" fill="none"/>
  </g>
  <g id="Oval-24" data-name="Oval" transform="translate(548 1077)" fill="#c0ca33" stroke="#c0ca33" stroke-miterlimit="10" stroke-width="1">
    <circle cx="5" cy="5" r="5" stroke="none"/>
    <circle cx="5" cy="5" r="4.5" fill="none"/>
  </g>
  <g id="Oval-25" data-name="Oval" transform="translate(570 699)" fill="#c0ca33" stroke="#c0ca33" stroke-miterlimit="10" stroke-width="1">
    <circle cx="3.5" cy="3.5" r="3.5" stroke="none"/>
    <circle cx="3.5" cy="3.5" r="3" fill="none"/>
  </g>
  <g id="Oval-26" data-name="Oval" transform="translate(570 1058)" fill="#c0ca33" stroke="#c0ca33" stroke-miterlimit="10" stroke-width="1">
    <circle cx="3.5" cy="3.5" r="3.5" stroke="none"/>
    <circle cx="3.5" cy="3.5" r="3" fill="none"/>
  </g>
  <g id="Oval-27" data-name="Oval" transform="translate(668 671)" fill="#c0ca33" stroke="#c0ca33" stroke-miterlimit="10" stroke-width="1">
    <circle cx="4" cy="4" r="4" stroke="none"/>
    <circle cx="4" cy="4" r="3.5" fill="none"/>
  </g>
  <g id="Oval-28" data-name="Oval" transform="translate(668 1085)" fill="#c0ca33" stroke="#c0ca33" stroke-miterlimit="10" stroke-width="1">
    <circle cx="4" cy="4" r="4" stroke="none"/>
    <circle cx="4" cy="4" r="3.5" fill="none"/>
  </g>
  <g id="Oval-29" data-name="Oval" transform="translate(676 638)" fill="#c0ca33" stroke="#c0ca33" stroke-miterlimit="10" stroke-width="1">
    <circle cx="5.5" cy="5.5" r="5.5" stroke="none"/>
    <circle cx="5.5" cy="5.5" r="5" fill="none"/>
  </g>
  <g id="Oval-30" data-name="Oval" transform="translate(676 1115)" fill="#c0ca33" stroke="#c0ca33" stroke-miterlimit="10" stroke-width="1">
    <circle cx="5.5" cy="5.5" r="5.5" stroke="none"/>
    <circle cx="5.5" cy="5.5" r="5" fill="none"/>
  </g>
  <g id="Oval-31" data-name="Oval" transform="translate(689 595)" fill="#c0ca33" stroke="#c0ca33" stroke-miterlimit="10" stroke-width="1">
    <circle cx="7.5" cy="7.5" r="7.5" stroke="none"/>
    <circle cx="7.5" cy="7.5" r="7" fill="none"/>
  </g>
  <g id="Oval-32" data-name="Oval" transform="translate(689 1154)" fill="#c0ca33" stroke="#c0ca33" stroke-miterlimit="10" stroke-width="1">
    <circle cx="7.5" cy="7.5" r="7.5" stroke="none"/>
    <circle cx="7.5" cy="7.5" r="7" fill="none"/>
  </g>
  <g id="Oval-33" data-name="Oval" transform="translate(824 403)" fill="#c0ca33" stroke="#c0ca33" stroke-miterlimit="10" stroke-width="1">
    <circle cx="7" cy="7" r="7" stroke="none"/>
    <circle cx="7" cy="7" r="6.5" fill="none"/>
  </g>
  <g id="Oval-34" data-name="Oval" transform="translate(824 1347)" fill="#c0ca33" stroke="#c0ca33" stroke-miterlimit="10" stroke-width="1">
    <circle cx="7" cy="7" r="7" stroke="none"/>
    <circle cx="7" cy="7" r="6.5" fill="none"/>
  </g>
  <g id="Oval-35" data-name="Oval" transform="translate(981 291)" fill="#c0ca33" stroke="#c0ca33" stroke-miterlimit="10" stroke-width="1">
    <circle cx="6" cy="6" r="6" stroke="none"/>
    <circle cx="6" cy="6" r="5.5" fill="none"/>
  </g>
  <g id="Oval-36" data-name="Oval" transform="translate(981 1462)" fill="#c0ca33" stroke="#c0ca33" stroke-miterlimit="10" stroke-width="1">
    <circle cx="6" cy="6" r="6" stroke="none"/>
    <circle cx="6" cy="6" r="5.5" fill="none"/>
  </g>
  <g id="Oval-37" data-name="Oval" transform="translate(1093 242)" fill="#c0ca33" stroke="#c0ca33" stroke-miterlimit="10" stroke-width="1">
    <circle cx="7" cy="7" r="7" stroke="none"/>
    <circle cx="7" cy="7" r="6.5" fill="none"/>
  </g>
  <g id="Oval-38" data-name="Oval" transform="translate(1093 1508)" fill="#c0ca33" stroke="#c0ca33" stroke-miterlimit="10" stroke-width="1">
    <circle cx="7" cy="7" r="7" stroke="none"/>
    <circle cx="7" cy="7" r="6.5" fill="none"/>
  </g>
  <g id="Oval-39" data-name="Oval" transform="translate(710 532)" fill="#c0ca33" stroke="#c0ca33" stroke-miterlimit="10" stroke-width="1">
    <circle cx="12" cy="12" r="12" stroke="none"/>
    <circle cx="12" cy="12" r="11.5" fill="none"/>
  </g>
  <g id="Oval-40" data-name="Oval" transform="translate(710 1208)" fill="#c0ca33" stroke="#c0ca33" stroke-miterlimit="10" stroke-width="1">
    <circle cx="12" cy="12" r="12" stroke="none"/>
    <circle cx="12" cy="12" r="11.5" fill="none"/>
  </g>
  <g id="Oval-41" data-name="Oval" transform="translate(852 270)" fill="#c0ca33" stroke="#c0ca33" stroke-miterlimit="10" stroke-width="1">
    <circle cx="9.5" cy="9.5" r="9.5" stroke="none"/>
    <circle cx="9.5" cy="9.5" r="9" fill="none"/>
  </g>
  <g id="Oval-42" data-name="Oval" transform="translate(852 1475)" fill="#c0ca33" stroke="#c0ca33" stroke-miterlimit="10" stroke-width="1">
    <circle cx="9.5" cy="9.5" r="9.5" stroke="none"/>
    <circle cx="9.5" cy="9.5" r="9" fill="none"/>
  </g>
  <g id="Oval-43" data-name="Oval" transform="translate(1020 250)" fill="#c0ca33" stroke="#c0ca33" stroke-miterlimit="10" stroke-width="1">
    <circle cx="15" cy="15" r="15" stroke="none"/>
    <circle cx="15" cy="15" r="14.5" fill="none"/>
  </g>
  <g id="Oval-44" data-name="Oval" transform="translate(1020 1485)" fill="#c0ca33" stroke="#c0ca33" stroke-miterlimit="10" stroke-width="1">
    <circle cx="15" cy="15" r="15" stroke="none"/>
    <circle cx="15" cy="15" r="14.5" fill="none"/>
  </g>
  <g id="Oval-45" data-name="Oval" transform="translate(1259)" fill="#c0ca33" stroke="#c0ca33" stroke-miterlimit="10" stroke-width="1">
    <circle cx="22" cy="22" r="22" stroke="none"/>
    <circle cx="22" cy="22" r="21.5" fill="none"/>
  </g>
  <g id="Oval-46" data-name="Oval" transform="translate(1259 1720)" fill="#c0ca33" stroke="#c0ca33" stroke-miterlimit="10" stroke-width="1">
    <circle cx="22" cy="22" r="22" stroke="none"/>
    <circle cx="22" cy="22" r="21.5" fill="none"/>
  </g>
  <g id="Oval-47" data-name="Oval" transform="translate(1175 68)" fill="#c0ca33" stroke="#c0ca33" stroke-miterlimit="10" stroke-width="1">
    <circle cx="9.5" cy="9.5" r="9.5" stroke="none"/>
    <circle cx="9.5" cy="9.5" r="9" fill="none"/>
  </g>
  <g id="Oval-48" data-name="Oval" transform="translate(1175 1677)" fill="#c0ca33" stroke="#c0ca33" stroke-miterlimit="10" stroke-width="1">
    <circle cx="9.5" cy="9.5" r="9.5" stroke="none"/>
    <circle cx="9.5" cy="9.5" r="9" fill="none"/>
  </g>
  <g id="Oval-49" data-name="Oval" transform="translate(1354 82)" fill="#c0ca33" stroke="#c0ca33" stroke-miterlimit="10" stroke-width="1">
    <circle cx="9" cy="9" r="9" stroke="none"/>
    <circle cx="9" cy="9" r="8.5" fill="none"/>
  </g>
  <g id="Oval-50" data-name="Oval" transform="translate(1353 1664)" fill="#c0ca33" stroke="#c0ca33" stroke-miterlimit="10" stroke-width="1">
    <circle cx="9" cy="9" r="9" stroke="none"/>
    <circle cx="9" cy="9" r="8.5" fill="none"/>
  </g>
  <g id="Oval-51" data-name="Oval" transform="translate(1499 255)" fill="#c0ca33" stroke="#c0ca33" stroke-miterlimit="10" stroke-width="1">
    <circle cx="16.5" cy="16.5" r="16.5" stroke="none"/>
    <circle cx="16.5" cy="16.5" r="16" fill="none"/>
  </g>
  <g id="Oval-52" data-name="Oval" transform="translate(1499 1477)" fill="#c0ca33" stroke="#c0ca33" stroke-miterlimit="10" stroke-width="1">
    <circle cx="16.5" cy="16.5" r="16.5" stroke="none"/>
    <circle cx="16.5" cy="16.5" r="16" fill="none"/>
  </g>
  <g id="Oval-53" data-name="Oval" transform="translate(1632 308)" fill="#c0ca33" stroke="#c0ca33" stroke-miterlimit="10" stroke-width="1">
    <circle cx="43.5" cy="43.5" r="43.5" stroke="none"/>
    <circle cx="43.5" cy="43.5" r="43" fill="none"/>
  </g>
  <g id="Oval-54" data-name="Oval" transform="translate(1632 1369)" fill="#c0ca33" stroke="#c0ca33" stroke-miterlimit="10" stroke-width="1">
    <circle cx="43.5" cy="43.5" r="43.5" stroke="none"/>
    <circle cx="43.5" cy="43.5" r="43" fill="none"/>
  </g>
  <g id="Oval-55" data-name="Oval" transform="translate(1709 308)" fill="#c0ca33" stroke="#c0ca33" stroke-miterlimit="10" stroke-width="1">
    <circle cx="10" cy="10" r="10" stroke="none"/>
    <circle cx="10" cy="10" r="9.5" fill="none"/>
  </g>
  <g id="Oval-56" data-name="Oval" transform="translate(1709 1436)" fill="#c0ca33" stroke="#c0ca33" stroke-miterlimit="10" stroke-width="1">
    <circle cx="10" cy="10" r="10" stroke="none"/>
    <circle cx="10" cy="10" r="9.5" fill="none"/>
  </g>
  <g id="Oval-57" data-name="Oval" transform="translate(1750 523)" fill="#c0ca33" stroke="#c0ca33" stroke-miterlimit="10" stroke-width="1">
    <circle cx="23" cy="23" r="23" stroke="none"/>
    <circle cx="23" cy="23" r="22.5" fill="none"/>
  </g>
  <g id="Oval-58" data-name="Oval" transform="translate(1750 1195)" fill="#c0ca33" stroke="#c0ca33" stroke-miterlimit="10" stroke-width="1">
    <circle cx="23" cy="23" r="23" stroke="none"/>
    <circle cx="23" cy="23" r="22.5" fill="none"/>
  </g>
  <g id="Oval-59" data-name="Oval" transform="translate(1770 652)" fill="#c0ca33" stroke="#c0ca33" stroke-miterlimit="10" stroke-width="1">
    <circle cx="13.5" cy="13.5" r="13.5" stroke="none"/>
    <circle cx="13.5" cy="13.5" r="13" fill="none"/>
  </g>
  <g id="Oval-60" data-name="Oval" transform="translate(1769 1085)" fill="#c0ca33" stroke="#c0ca33" stroke-miterlimit="10" stroke-width="1">
    <circle cx="13.5" cy="13.5" r="13.5" stroke="none"/>
    <circle cx="13.5" cy="13.5" r="13" fill="none"/>
  </g>
  <g id="Oval-61" data-name="Oval" transform="translate(1762 728)" fill="#c0ca33" stroke="#c0ca33" stroke-miterlimit="10" stroke-width="1">
    <circle cx="9" cy="9" r="9" stroke="none"/>
    <circle cx="9" cy="9" r="8.5" fill="none"/>
  </g>
  <g id="Oval-62" data-name="Oval" transform="translate(1761 1018)" fill="#c0ca33" stroke="#c0ca33" stroke-miterlimit="10" stroke-width="1">
    <circle cx="9" cy="9" r="9" stroke="none"/>
    <circle cx="9" cy="9" r="8.5" fill="none"/>
  </g>
  <g id="Oval-63" data-name="Oval" transform="translate(1176 44)" fill="#c0ca33" stroke="#c0ca33" stroke-miterlimit="10" stroke-width="1">
    <circle cx="94" cy="94" r="94" stroke="none"/>
    <circle cx="94" cy="94" r="93.5" fill="none"/>
  </g>
  <g id="Oval-64" data-name="Oval" transform="translate(1175 1532)" fill="#c0ca33" stroke="#c0ca33" stroke-miterlimit="10" stroke-width="1">
    <circle cx="94" cy="94" r="94" stroke="none"/>
    <circle cx="94" cy="94" r="93.5" fill="none"/>
  </g>
  <g id="Oval-65" data-name="Oval" transform="translate(745 437)" fill="#c0ca33" stroke="#c0ca33" stroke-miterlimit="10" stroke-width="1">
    <circle cx="5" cy="5" r="5" stroke="none"/>
    <circle cx="5" cy="5" r="4.5" fill="none"/>
  </g>
  <g id="Oval-66" data-name="Oval" transform="translate(746 1318)" fill="#c0ca33" stroke="#c0ca33" stroke-miterlimit="10" stroke-width="1">
    <circle cx="5" cy="5" r="5" stroke="none"/>
    <circle cx="5" cy="5" r="4.5" fill="none"/>
  </g>
  <g id="Oval-67" data-name="Oval" transform="translate(752 437)" fill="#c0ca33" stroke="#c0ca33" stroke-miterlimit="10" stroke-width="1">
    <circle cx="20" cy="20" r="20" stroke="none"/>
    <circle cx="20" cy="20" r="19.5" fill="none"/>
  </g>
  <g id="Oval-68" data-name="Oval" transform="translate(752 1287)" fill="#c0ca33" stroke="#c0ca33" stroke-miterlimit="10" stroke-width="1">
    <circle cx="20" cy="20" r="20" stroke="none"/>
    <circle cx="20" cy="20" r="19.5" fill="none"/>
  </g>
  <g id="Oval-69" data-name="Oval" transform="translate(852 281)" fill="#c0ca33" stroke="#c0ca33" stroke-miterlimit="10" stroke-width="1">
    <circle cx="38" cy="38" r="38" stroke="none"/>
    <circle cx="38" cy="38" r="37.5" fill="none"/>
  </g>
  <g id="Oval-70" data-name="Oval" transform="translate(852 1406)" fill="#c0ca33" stroke="#c0ca33" stroke-miterlimit="10" stroke-width="1">
    <circle cx="38" cy="38" r="38" stroke="none"/>
    <circle cx="38" cy="38" r="37.5" fill="none"/>
  </g>
  <g id="Oval-71" data-name="Oval" transform="translate(237 608)" fill="#c0ca33" stroke="#c0ca33" stroke-miterlimit="10" stroke-width="1">
    <circle cx="5.5" cy="5.5" r="5.5" stroke="none"/>
    <circle cx="5.5" cy="5.5" r="5" fill="none"/>
  </g>
  <g id="Oval-72" data-name="Oval" transform="translate(237 1146)" fill="#c0ca33" stroke="#c0ca33" stroke-miterlimit="10" stroke-width="1">
    <circle cx="5.5" cy="5.5" r="5.5" stroke="none"/>
    <circle cx="5.5" cy="5.5" r="5" fill="none"/>
  </g>
  <g id="Oval-73" data-name="Oval" transform="translate(230 1095)" fill="#c0ca33" stroke="#c0ca33" stroke-miterlimit="10" stroke-width="1">
    <circle cx="26" cy="26" r="26" stroke="none"/>
    <circle cx="26" cy="26" r="25.5" fill="none"/>
  </g>
  <g id="Oval-74" data-name="Oval" transform="translate(0 869)" fill="#c0ca33" stroke="#c0ca33" stroke-miterlimit="10" stroke-width="1">
    <circle cx="13" cy="13" r="13" stroke="none"/>
    <circle cx="13" cy="13" r="12.5" fill="none"/>
  </g>
  <g id="Oval-75" data-name="Oval" transform="translate(44 821)" fill="#c0ca33" stroke="#c0ca33" stroke-miterlimit="10" stroke-width="1">
    <circle cx="6" cy="6" r="6" stroke="none"/>
    <circle cx="6" cy="6" r="5.5" fill="none"/>
  </g>
  <g id="Oval-76" data-name="Oval" transform="translate(44 931)" fill="#c0ca33" stroke="#c0ca33" stroke-miterlimit="10" stroke-width="1">
    <circle cx="6" cy="6" r="6" stroke="none"/>
    <circle cx="6" cy="6" r="5.5" fill="none"/>
  </g>
  <g id="Oval-77" data-name="Oval" transform="translate(78 941)" fill="#c0ca33" stroke="#c0ca33" stroke-miterlimit="10" stroke-width="1">
    <circle cx="3.5" cy="3.5" r="3.5" stroke="none"/>
    <circle cx="3.5" cy="3.5" r="3" fill="none"/>
  </g>
  <g id="Oval-78" data-name="Oval" transform="translate(78 817)" fill="#c0ca33" stroke="#c0ca33" stroke-miterlimit="10" stroke-width="1">
    <circle cx="3.5" cy="3.5" r="3.5" stroke="none"/>
    <circle cx="3.5" cy="3.5" r="3" fill="none"/>
  </g>
  <path id="Path" d="M.206,648.038Q2.5,391.1,176.572,198.666C270.242,100.477,418.847,4.135,612.193,0c113.6,0,296.668,24.8,428.923,198.666,49.421,64.968,102.752,177.886,72.921,308.865Q1079.584,623.87,998.62,648.038h-.206q80.964,24.168,115.417,140.507c29.831,130.979-23.5,243.9-72.921,308.865-132.255,173.862-315.323,198.666-428.923,198.666-193.345-4.135-341.951-100.477-435.62-198.666Q4.035,906.9.063,653.17L0,648.038Z" transform="translate(645 233.962)" fill="#c0ca33" stroke="#c0ca33" stroke-linecap="square" stroke-miterlimit="10" stroke-width="1"/>
</svg>
